<svg xmlns="http://www.w3.org/2000/svg" xmlns:xlink="http://www.w3.org/1999/xlink" width="341.334" height="512" viewBox="0 0 341.334 512">
  <defs>
    <linearGradient id="linear-gradient" x1="0.896" y1="0.406" x2="-0.053" y2="0.406" gradientUnits="objectBoundingBox">
      <stop offset="0" stop-color="#fd9d01"/>
      <stop offset="1" stop-color="#cd2728"/>
    </linearGradient>
    <linearGradient id="linear-gradient-2" y1="0.5" x2="1" y2="0.5" gradientUnits="objectBoundingBox">
      <stop offset="0" stop-color="#cd2728"/>
      <stop offset="1" stop-color="#ffa200"/>
    </linearGradient>
  </defs>
  <g id="map-marker-kangaroo" transform="translate(-2226 192)">
    <g id="pin" transform="translate(2140.667 -192)">
      <g id="Group_1" data-name="Group 1">
        <path id="Path_1" data-name="Path 1" d="M256,0C161.9,0,85.333,76.563,85.333,170.667a170.986,170.986,0,0,0,20.49,81.1L246.667,506.5a10.669,10.669,0,0,0,18.666,0l140.9-254.813a170.969,170.969,0,0,0,20.438-81.021C426.667,76.563,350.1,0,256,0Zm0,256a85.333,85.333,0,1,1,85.333-85.333A85.431,85.431,0,0,1,256,256Z" fill="url(#linear-gradient)"/>
      </g>
    </g>
    <circle id="Ellipse_1" data-name="Ellipse 1" cx="133" cy="133" r="133" transform="translate(2264 -158)" fill="#fff"/>
    <g id="Group_1474" data-name="Group 1474" transform="translate(2144.934 -445.608)">
      <path id="Path_2122" data-name="Path 2122" d="M435.588,512.265c-1.84-2.351.588-7.133-2.172-15.048-1.431-4.139-4.344-6.668-6.744-9.6-3.475,7.408-4.012,14.511,1.149,19.465a5.026,5.026,0,0,0-.639.332c-4.036-4.316-4.427-8.685-4.061-14.229-1.277-2.5-3.984-3.652-5.7-6.08a21.922,21.922,0,0,0,2.017,13.282,29.206,29.206,0,0,0,6.719,7.625c-4.164,2.555-8.225,6.26-13.592,6.8a3.613,3.613,0,0,1,.128,3.347,8.538,8.538,0,0,0-6.1-5.672c-9.2-1.788-17.345-17.5-28.917-25.188a52.437,52.437,0,0,0-15.173-6.769c-4.344-1.2-9.784-.944-12.44-2.068a20.716,20.716,0,0,0,6.668,2.3,47.518,47.518,0,0,1,17.013,8.813c2.069,1.941.46,3.96-3.96,1.736-2.912-1.456-9.553-8-14.1-9.3-6.055-1.736-9.632.357-16.324-.512a22.358,22.358,0,0,0-9.528,1.1c4.919-.435,7.689,3.347,22.173,2.888,5.952-.2,10.729,5.824,16.145,11.088,5.492,5.313,15.021,4.6,19.9,10.473,3.78,4.572.332,9.5-5.952,6.515-4.181-2.019-1.23-5.057,6.028-2.376a19.506,19.506,0,0,0-7.408-5.032c-4.181-1.456-9.272.076-14.46-1.1h0a40.091,40.091,0,0,1,5.165,7.664,15.122,15.122,0,0,0,10.908,7.92c5.824,1.1,10.884-1.176,11.752-5.672a4.521,4.521,0,0,1-.307,5.876c-5.057,4.648-10.22,3.219-15.328,2.2,3.443,4.368,2.248,6.464-.408,5.724a10.3,10.3,0,0,1-5-5.755v.246a59.655,59.655,0,0,1-2.836,15.813c4.216,1.1,8.712,4.216,12.876,6.412-.716-4.88-1.2-10.552,1.476-14.1,4.265-5.723,15.1-3.065,16.6-10.628a5.46,5.46,0,0,1-2.172,5.109c-2.912,2.248-5.544,2.145-9.044,3.6a8.471,8.471,0,0,0-5.032,8.736,46.239,46.239,0,0,0,6,23.629,5.249,5.249,0,0,1-.179,5.824,4.58,4.58,0,0,0,.024-3.143c-1.992.971-2.1,2.705-2.887,3.628-.384.435-1.149,1.148-1.559,1.072-2.214-1.736-4.919-.868-5.7-2.145a1.916,1.916,0,0,0,.128,1.813,4.637,4.637,0,0,1,3.908,1.277,5.226,5.226,0,0,0-3.756-.564c-.64.128-1.636.792-2.683.408a12.813,12.813,0,0,0,4.777,3.857,4.224,4.224,0,0,0,3.269.307,40.194,40.194,0,0,0,8.481-4.471,8.746,8.746,0,0,0,3.7-10.473c-1.176-4.88-4.344-9.12-3.22-15.38a15.687,15.687,0,0,1,5.9-9.324,21.075,21.075,0,0,0-3.6,6.668c4.725-.246,7.1-2.706,15.249-2.556,1.456.052,3.143-.639,3.908-3.652.664-2.632-2.172-4.317-2.632-7.588a18.665,18.665,0,0,0,3.475,4.521,16.929,16.929,0,0,1,11.189-4.521,4.919,4.919,0,0,1-2.479-7.46c-1,4.393.92,6.284,4.5,7.637a27.057,27.057,0,0,1,8.916,6,4.654,4.654,0,0,0,3.628,1.23,14.637,14.637,0,0,0,3.6-.536,9.173,9.173,0,0,0-3.2-1.2c-.46-.076-.28-.972,1-.664,1.328.308,2.656,1.764,3.576,1.736a1.864,1.864,0,0,0,1.38-1.559,9.205,9.205,0,0,1-.844-2.528c0-.612.689-.612.92,0a12.653,12.653,0,0,1,.408,2.214,1.117,1.117,0,0,0,1.149-.588,5.185,5.185,0,0,0,.536-3.4c-.1-.46-.435-.492-.588-.817a47.589,47.589,0,0,0-5.109-8.736c1.021-.46,1.277-2.733-.844-3.908a30.228,30.228,0,0,1-9.221-7.46,6.039,6.039,0,0,0-.435,4.9ZM347.862,598c3.32-.46,2.937,1.148,2.1,1.559a9.46,9.46,0,0,1-5.723.28c-2.069-.246-3.96-1.3-6-1.635a37.594,37.594,0,0,0-5.364.076,16.58,16.58,0,0,1,6.26-.738,19.287,19.287,0,0,0,8.736.46Zm-3.7-118.406a6.458,6.458,0,0,1-2.428-.052,15.083,15.083,0,0,0-5.6-.844,31.881,31.881,0,0,1-14.3-1.021,30.85,30.85,0,0,0,9.376.435,32.637,32.637,0,0,1,8.557-.817c1.864.307,2.656,1.891,4.393,2.3Zm14.716,122.927a6.078,6.078,0,0,1,2.017,3.168c.2.868-1.328.738-4.444.307a9.376,9.376,0,0,0-5.108,1.124,14.439,14.439,0,0,1,8.788,1.148c1.252.536,2.76.1,4.112.384,1.508.307,1.4,1.124.844,1.431-1.048.613-2.6-.025-3.78.2a12.37,12.37,0,0,0,6.361.944c1.968-.408.716-2.6-1.149-4.012a66.6,66.6,0,0,0-7.637-4.7Zm-14.757-8.584c-2.937-.689-4.267-3.347-7.46-3.884-4.981-.792-9.452.844-14.484,1.38a53.952,53.952,0,0,1-15.965-.716c6.208,2.46,14.229,2.632,24.293,1.736a24.694,24.694,0,0,1,9.477,1.4,10.737,10.737,0,0,0,4.139.076ZM321.407,580.9c3.756-.844,6.54.716,12.721.92,2.4.052,4.624-.844,4.919-1.763-1.532-.153-3.475-1.736-5.288-2.1a7.16,7.16,0,0,0-4.393.246c2.12.025,4.548.944,4.164,1.736-.492,1.072-3.3.246-5.9.1a18.37,18.37,0,0,0-6.232.844Zm24.82-3.456a8.052,8.052,0,0,0,.332-4.7c-.307-.844-1.508-1.23-2.861-1.277a8.41,8.41,0,0,1-5.084-3.092,7.871,7.871,0,0,0,4.9,1.149c3.552-.563,6.872-3.424,7.816,3.372h0a17.5,17.5,0,0,1-2.019,7.972c-2.324,5.084-.492,6.284,1.021,6.395-.076-3.628,2.017-7.92,2.4-11.624.588-5.773-.767-9.555-3.96-10.269.817-4.727.792-9.477-5.008-10.168a9.965,9.965,0,0,1,4.828-1.23c3.443.153,5.313-.332,6.565-2.019a6.26,6.26,0,0,1-5.008.46,14.676,14.676,0,0,0-10.448.792,12.052,12.052,0,0,1-12.389-.792,10.01,10.01,0,0,0,7.1-.46,14.511,14.511,0,0,1,9.248-3.116c2.6-.153,2.46-4.317.767-8.481-.664-1.608-1.431-3.347-2.214-5.059-3.689-7.817-11.6-12.645-17.8-12.364a14.2,14.2,0,0,1,9.58,6.1c-5.411,3.443-12.236,6.464-17.269,0a39.273,39.273,0,0,1-5.492-9.86A64.688,64.688,0,0,0,285.655,524c-9.12,2.4-21.46,4.267-31.237,2.836-3.652-.536-10.192-2.706-13.973-2.706a24.441,24.441,0,0,1,10.984.408c21.868,4.265,49.533-22.889,63.993-20.181a37.26,37.26,0,0,1,8.072,3.756c-2.784.2-5.824-1.252-8.968-1.353-2.1-.076-4.164,3.016,1.584,4.776a21.376,21.376,0,0,0,13.774-1.048c4.061-1.609,3.96-3.857,1.532-4.317A25.682,25.682,0,0,1,320.05,502a21.732,21.732,0,0,0,6.847,1.2c3.689.308,8.609,0,11.981,1.476,7.625,3.372,6.36,9.528,9.656,11.725a4.877,4.877,0,0,1-6.233,2.632c3.935,3.04,7.025,2.273,11.624,5.927,3.2,2.529,5.657,9.3,3.832,13.437-1.124,2.528-3.092,3.908-4.853.689a13.07,13.07,0,0,1,.944,8.854,28.435,28.435,0,0,0,7.716-13.053,18.238,18.238,0,0,0-.384-9.988c3.525,1.353,5.544.944,6.515-.664a9.791,9.791,0,0,1-5.288-.767,28.533,28.533,0,0,1-7.792-6.26,8.168,8.168,0,0,0,5.084-.332,4.531,4.531,0,0,0,1.685-6.284,9.484,9.484,0,0,0-10.269-4.7,10.025,10.025,0,0,1,8.609-2.46,11.484,11.484,0,0,1,9.1,6.948c4.521,11.368,1.891,27.1-8.072,50.175-2.556,5.927-4.139,26.133-.153,31.829a8.117,8.117,0,0,1-5.773-6.719c.246,2.2.512,5.7,2.5,6.82,7.1,4.036,14.841,6.82,22.252,10.244a14.984,14.984,0,0,1,6.1,5.468c2.017,3.064,4.725,6.131,6.744,6.1,2.632-.076,4.444-.9,6.948-.076,2.4.792,4.012,3.04,3.32,4.649-.664-1.276-1.355-2.12-2.4-1.941.1,1.508-.844,1.864-2.2,2.145a16.436,16.436,0,0,1-9.6-.588c-1.353-.664-1.992-3.32-5.364-3.832-2.145,1.476-4.853-1.456-6.488-2.836a151.856,151.856,0,0,0-16.912-11.265c-1.891.28-3.168,1.021-4.752-.076-2.988-2.1-3.96-4.5-6-5.952a4.7,4.7,0,0,1-3.652-3.576,8.743,8.743,0,0,0-3.756-3.04c-2.172-.588-4.393.408-6.592-.128-2.428-.612-3.4-1.864-6.924-1.864a15.477,15.477,0,0,1,7.18.025c2.46.588,8.94-.9,8.508-3.628-.246-1.559-2.019-1.559-3.628-1.763,3.7-.868,5.236-1.788,6.132-3.116Zm-98.835-47.4c3.832-.716,4.164-1.532,3.065-2.068a8.159,8.159,0,0,0-7.18.332,13.676,13.676,0,0,1-8.788.944,21.922,21.922,0,0,0-7.664-.46,61.9,61.9,0,0,1,8.363,1.687,27.744,27.744,0,0,0,12.212-.435Zm67.21-35.969a7.8,7.8,0,0,0-3.372.588c-7.2,2.912-12.052,5.391-19.005,8.854-6.54,3.269-13.132,9.733-19.824,10.168-3.2.229-6.284-.384-8.456.844a10.884,10.884,0,0,1,6.641,1.2,4.892,4.892,0,0,0,4.9-.128,8.823,8.823,0,0,1-4.24,1.635,12.009,12.009,0,0,1-2.528-.307,49.846,49.846,0,0,1-14.868,5.441,46.815,46.815,0,0,0,24.293-5.672c5.441-3.015,9.86-7.625,15.173-10.883a161.44,161.44,0,0,1,21.28-11.752Zm8.532-7.664a32.639,32.639,0,0,1-9.784,1.4c2.706-1,1.124-2.248-.152-2.248-2.76.025-3.832.639-6.565.868a24.956,24.956,0,0,1-10.884-1.1c3.884.076,7.076,1.021,12.364-.689a10.148,10.148,0,0,1,9.477.612,10.5,10.5,0,0,0,5.544,1.149Zm10.652-1.736a31.109,31.109,0,0,0,11.088,2.172,92.37,92.37,0,0,1-13.036.128c-4.036-.246-7.689,1.916-11.6,2.912a37.491,37.491,0,0,1,13.528-5.212Zm5.748,74.39c4.344-.588,3.832,1.532,2.733,2.069a12.53,12.53,0,0,1-7.46.357c-2.732-.332-5.185-1.722-7.893-2.145a49.358,49.358,0,0,0-7,.1c2.324-.384,5.928-1.636,8.176-.972a25.519,25.519,0,0,0,11.444.588Zm101.956-41.392a5.126,5.126,0,0,0,2.4,1.685,1.328,1.328,0,0,0,1.38-.246.7.7,0,0,1-.738.716,2.605,2.605,0,0,1-.9,1.532c.332-.716-.153-1.252-.844-1.687a3.2,3.2,0,0,1-1.3-1.992Zm-142.928-23.3.052-.025a47.1,47.1,0,0,1,18.265-3.168c6.233.307,7.944,2.58,11.929,3.552,2.58.612,5.952-.384.639-2.988a18.054,18.054,0,0,1,8.021,2.809,10.389,10.389,0,0,0,5.032,1.967,25.742,25.742,0,0,1-17.04.536c-5.008-1.252-7.792-4.471-14.944-4.292-2.86.076-8,1.4-11.752,1.764a.2.2,0,0,1-.076-.052c-.052-.025-.076-.076-.128-.1Zm-81.03,35.28a5.7,5.7,0,0,1-.612-.2,33.45,33.45,0,0,0,18.725,6.488,66.45,66.45,0,0,0,19.005-1.23c2.836-.64-2.172,3.065-8.508,4.673l.229.076c12.34-.332,20.1-9.248,26.925-5.391-.28-2.46-4.292-4.216-9.553-3.857-6.72.408-11.265,1.94-17.955,2.632a58.268,58.268,0,0,1-13.592-.308,77.188,77.188,0,0,1-14.664-2.887Zm-17.908-15.021a64.715,64.715,0,0,1-7.379-17.463c-1.149-4.216-3.347-3.96-2.888,1.813,1.66,21.816,14.841,43.556,46.486,42.073a43.906,43.906,0,0,0,6.055-.664c-13.717.153-26.364-1-38.524-14.152-4.624-4.981-9.6-13.948-9.248-17.065.28-2.555,2.86,2.2,5.492,5.468Zm173.943-10.8c-5.6.767-11.88-3.7-14.688-3.689-3.689.025-8.363,3.96-14.792.817,5.059-.153,10.984-2.477,10.347-4.317-1.124-3.32-7.765-2.273-13.437-3.04-4.8-.639-11.189-3.22-12.672-5.108,6.309,1.38,11.776,3.7,23.629,2.145a13.14,13.14,0,0,1,12.593,4.317c1.709,2.137,6.181,7.629,9.014,8.881Z" transform="translate(-92.024 -119.165)" fill-rule="evenodd" fill="url(#linear-gradient-2)"/>
    </g>
  </g>
</svg>
