<svg xmlns="http://www.w3.org/2000/svg" viewBox="0 0 95.84 134.74"><defs><style>.cls-1{fill:#a5a5a5;}.cls-2{fill:#878787;}.cls-3{fill:#ffb38e;}.cls-4{fill:#ffcca8;}.cls-5{fill:#724f3f;}.cls-6{fill:#5b4961;}.cls-7{fill:#e69974;}.cls-8{fill:#fff;}</style></defs><title>Asset 1</title><g id="Layer_2" data-name="Layer 2"><g id="Layer_1-2" data-name="Layer 1"><path class="cls-1" d="M.05,97.83c31.69,13.66,63.47,13.58,95.35,0C94.12,80.51,88.93,69.48,83.17,56.3a.47.47,0,0,0-.34-.27L47.72,49.18,12.61,56a.52.52,0,0,0-.34.26C5.59,70.2.88,79.74.05,97.83Z"/><path class="cls-2" d="M47.72,49.18,34.14,51.83c-.72,6.94,1.44,12.36,6.1,16.48l7.48-4.58,7.17,4.58A21.35,21.35,0,0,0,61,51.77Z"/><path class="cls-2" d="M9,107.17l8.14.5a9.61,9.61,0,0,0,10.18-9h0a9.61,9.61,0,0,0-9-10.19L10.2,88A9.61,9.61,0,0,0,0,97H0A9.61,9.61,0,0,0,9,107.17Z"/><path class="cls-2" d="M86.82,107.53l-8.14.5A9.61,9.61,0,0,1,68.5,99h0a9.61,9.61,0,0,1,9-10.19l8.14-.5a9.61,9.61,0,0,1,10.18,9h0A9.61,9.61,0,0,1,86.82,107.53Z"/><path class="cls-3" d="M38.19,51.53c0,5.9,9.53,11.9,9.53,11.9s9.54-6,9.54-11.9V31.29H38.19Z"/><path class="cls-3" d="M33,38.45h0V27.86l-2.2-1.57c-1.33-.95-2.94.46-2.74,2.4l.5,4.78C28.83,36.32,30.72,38.45,33,38.45Z"/><path class="cls-3" d="M62.48,38.45h0V27.86l2.2-1.57c1.33-.95,2.94.46,2.74,2.4l-.5,4.78C66.62,36.32,64.72,38.45,62.48,38.45Z"/><path class="cls-4" d="M44.11,53.05h0a8.69,8.69,0,0,0,7.23,0h0a23.69,23.69,0,0,0,13.5-21.72v-8.8c0-10.06-7.66-18.21-17.12-18.21h0c-9.45,0-17.11,8.15-17.11,18.21v8.8A23.69,23.69,0,0,0,44.11,53.05Z"/><polygon class="cls-5" points="30.61 31.71 33.46 19.75 61.02 16.48 64.82 32.22 65.12 17.25 46.14 4.39 30.46 16.53 30.61 31.71"/><path class="cls-4" d="M27.93,87c.71-1.65,2.42-2.73,1.27-3.26-2.74-1.28-6.18.73-8.68,4.09-1.08,1.45,2.85.76,4,1.26S27.21,88.69,27.93,87Z"/><path class="cls-4" d="M67.44,87c-.71-1.65-2.42-2.73-1.28-3.26,2.74-1.28,6.19.73,8.69,4.09,1.07,1.45-2.85.76-4,1.26S68.15,88.69,67.44,87Z"/><path class="cls-6" d="M47.72,134.74A28.88,28.88,0,1,1,76.6,105.86,28.91,28.91,0,0,1,47.72,134.74Zm0-52.93a24,24,0,1,0,24,24A24.07,24.07,0,0,0,47.72,81.81Z"/><path class="cls-6" d="M22,110.63,36.42,115a40.1,40.1,0,0,0,23.32,0l14.38-4.38v-8.21a130.84,130.84,0,0,1-52.08,0Z"/><path class="cls-4" d="M27.74,101.46a65.92,65.92,0,0,0,4-8,3.36,3.36,0,0,0-1.67-4.35L25.3,86.89A4.07,4.07,0,0,0,19.79,89a84.65,84.65,0,0,0-3.16,9.29,4.07,4.07,0,0,0,3,5l2.28.55A5.33,5.33,0,0,0,27.74,101.46Z"/><path class="cls-7" d="M20.06,98.65a.54.54,0,0,0-.67.35.53.53,0,0,0,.35.67l7.57,2.41a5.27,5.27,0,0,0,.43-.62c.07-.1.12-.21.19-.31Z"/><path class="cls-7" d="M21.93,94.82a.54.54,0,0,0-.36,1l7.76,2.78c.17-.32.34-.63.5-1Z"/><path class="cls-7" d="M23.44,90.68a.54.54,0,1,0-.4,1L31.11,95c.15-.32.29-.65.43-1Z"/><path class="cls-4" d="M67.42,101.46a64.43,64.43,0,0,1-4-8,3.36,3.36,0,0,1,1.66-4.35l4.8-2.26A4.07,4.07,0,0,1,75.37,89a84.71,84.71,0,0,1,3.17,9.29,4.08,4.08,0,0,1-3,5l-2.27.55A5.35,5.35,0,0,1,67.42,101.46Z"/><path class="cls-7" d="M75.11,98.65a.53.53,0,1,1,.32,1l-7.58,2.41a6.82,6.82,0,0,1-.43-.62l-.18-.31Z"/><path class="cls-7" d="M73.23,94.82a.54.54,0,1,1,.37,1l-7.76,2.78c-.17-.32-.34-.63-.51-1Z"/><path class="cls-7" d="M71.72,90.68a.53.53,0,0,1,.7.3.54.54,0,0,1-.29.7L64.06,95c-.15-.32-.3-.65-.44-1Z"/><path class="cls-2" d="M30.48,15.16C30.52,8.89,39.21,0,47.87,0S65.16,8.9,65.12,15.16V26.82c-11.66-6.53-23.21-6.67-34.64,0Z"/><path class="cls-1" d="M33,15.16C33,8.89,40.44,0,47.86,0s14.8,8.9,14.77,15.16V26.82c-10-6.53-19.88-6.67-29.66,0Z"/><path class="cls-2" d="M33.41,27a1.85,1.85,0,0,1-1-3.39c10.23-6.83,20.56-6.82,30.7,0A1.85,1.85,0,1,1,61,26.67c-8.89-6-17.59-6-26.58,0A1.82,1.82,0,0,1,33.41,27Z"/><ellipse class="cls-8" cx="47.63" cy="12.64" rx="6.82" ry="4.39"/><rect class="cls-8" x="59.15" y="70.35" width="16.66" height="5.86"/></g></g></svg>