<svg xmlns="http://www.w3.org/2000/svg" viewBox="0 0 95.35 106.2"><defs><style>.cls-1{fill:#a96c46;}.cls-2{fill:#72b4bd;}.cls-3{fill:#ffb38e;}.cls-4{fill:#ffcca8;}.cls-5{fill:#d18c6f;}.cls-6{fill:#5b4961;}</style></defs><title>Asset 2</title><g id="Layer_2" data-name="Layer 2"><g id="Layer_1-2" data-name="Layer 1"><path class="cls-1" d="M0,96.34c31.94,13.08,63.72,13.21,95.35,0-.92-12.55-3.9-21.79-7.66-30.94a21.7,21.7,0,0,0-15.9-13l-24.12-4.7L23.13,52.48A21.72,21.72,0,0,0,7.42,65,80.09,80.09,0,0,0,0,96.34Z"/><path class="cls-2" d="M53.58,43.74,47.67,43l-6.38.77a6.68,6.68,0,0,0-5.88,7.12c.41,5.32,1.56,9.52,4.44,13.61l7.45-6.16,8,6.22c2.27-3.61,3.55-8.16,4.18-13.32A6.73,6.73,0,0,0,53.58,43.74Z"/><polygon class="cls-3" points="38.14 50.47 47.3 61.17 57.21 50.47 57.21 29.8 38.14 29.8 38.14 50.47"/><path class="cls-3" d="M32.92,37h0V26.37l-2.2-1.57c-1.33-.95-2.94.45-2.74,2.39l.5,4.79C28.78,34.83,30.67,37,32.92,37Z"/><path class="cls-3" d="M62.43,37h0V26.37l2.2-1.57c1.33-.95,2.94.45,2.74,2.39L66.87,32C66.57,34.83,64.68,37,62.43,37Z"/><path class="cls-4" d="M44.06,51.56h0a8.69,8.69,0,0,0,7.23,0h0a23.69,23.69,0,0,0,13.5-21.72V21c0-10-7.66-18.2-17.12-18.2h0C38.22,2.83,30.56,11,30.56,21v8.81A23.69,23.69,0,0,0,44.06,51.56Z"/><path class="cls-5" d="M30.6,30.22l1.91-9.17c12.06,1.08,19.1-1.26,27.57-5.13l4.71,14.3c1.19-7.09,2.33-9.36,2.15-15.8A7.28,7.28,0,0,0,60.88,7.3h0l-1-1c-6-9.14-15.19-7.09-24.41-1.73a14.15,14.15,0,0,0-7.08,12.64C28.47,20.5,29.27,24.38,30.6,30.22Z"/><path class="cls-6" d="M55.9,36.15A6,6,0,0,1,50,30.53l-.39-4.1.48-.22a13.55,13.55,0,0,1,11.57,0l.48.22-.39,4.1A6,6,0,0,1,55.9,36.15Zm-4.69-8.8.29,3a4.41,4.41,0,0,0,8.81,0l.29-3A11.88,11.88,0,0,0,51.21,27.35Z"/><path class="cls-6" d="M39.57,36.15a6,6,0,0,1-5.88-5.62l-.38-4.1.48-.22a13.52,13.52,0,0,1,11.56,0l.49.22-.39,4.1A6,6,0,0,1,39.57,36.15Zm-4.69-8.8.29,3a4.41,4.41,0,0,0,8.81,0l.28-3A11.85,11.85,0,0,0,34.88,27.35Z"/><path class="cls-6" d="M50.16,27.57a6.43,6.43,0,0,0-4.84,0l-.54-1.38a8,8,0,0,1,5.92,0Z"/><rect class="cls-6" x="29.35" y="26.14" width="4.74" height="1.48"/><rect class="cls-6" x="61.38" y="26.14" width="4.74" height="1.48"/></g></g></svg>